<?xml version="1.0" encoding="us-ascii" standalone="no"?><svg xmlns="http://www.w3.org/2000/svg" xmlns:xlink="http://www.w3.org/1999/xlink" contentStyleType="text/css" height="893px" preserveAspectRatio="none" style="width:1327px;height:893px;background:#FFFFFF;" version="1.1" viewBox="0 0 1327 893" width="1327px" zoomAndPan="magnify"><defs/><g><text fill="#000000" font-family="Arial" font-size="14" font-weight="bold" lengthAdjust="spacing" textLength="288" x="512.5" y="25.3608">&#1057;&#1090;&#1088;&#1091;&#1082;&#1090;&#1091;&#1088;&#1085;&#1072;&#1103; &#1089;&#1093;&#1077;&#1084;&#1072; &#1084;&#1086;&#1076;&#1091;&#1083;&#1077;&#1081; &#8212; ReHoster</text><!--cluster core--><g id="cluster_core"><path d="M8.5,99.0986 L35.5,99.0986 A3.75,3.75 0 0 1 38,101.5986 L45,120.5977 L161.5,120.5977 A2.5,2.5 0 0 1 164,123.0977 L164,438.5986 A2.5,2.5 0 0 1 161.5,441.0986 L8.5,441.0986 A2.5,2.5 0 0 1 6,438.5986 L6,101.5986 A2.5,2.5 0 0 1 8.5,99.0986 " fill="none" style="stroke:#336699;stroke-width:1.5;"/><line style="stroke:#336699;stroke-width:1.5;" x1="6" x2="45" y1="120.5977" y2="120.5977"/><text fill="#000000" font-family="Arial" font-size="10" font-weight="bold" lengthAdjust="spacing" textLength="22" x="12" y="112.6421">core</text></g><!--cluster collector--><g id="cluster_collector"><path d="M242.5,247.0986 L290.5,247.0986 A3.75,3.75 0 0 1 293,249.5986 L300,268.5977 L793.5,268.5977 A2.5,2.5 0 0 1 796,271.0977 L796,329.5986 A2.5,2.5 0 0 1 793.5,332.0986 L242.5,332.0986 A2.5,2.5 0 0 1 240,329.5986 L240,249.5986 A2.5,2.5 0 0 1 242.5,247.0986 " fill="none" style="stroke:#336699;stroke-width:1.5;"/><line style="stroke:#336699;stroke-width:1.5;" x1="240" x2="300" y1="268.5977" y2="268.5977"/><text fill="#000000" font-family="Arial" font-size="10" font-weight="bold" lengthAdjust="spacing" textLength="43" x="246" y="260.6421">collector</text></g><!--cluster analysis--><g id="cluster_analysis"><path d="M377.5,356.0986 L423.5,356.0986 A3.75,3.75 0 0 1 426,358.5986 L433,377.5977 L846.5,377.5977 A2.5,2.5 0 0 1 849,380.0977 L849,438.5986 A2.5,2.5 0 0 1 846.5,441.0986 L377.5,441.0986 A2.5,2.5 0 0 1 375,438.5986 L375,358.5986 A2.5,2.5 0 0 1 377.5,356.0986 " fill="none" style="stroke:#336699;stroke-width:1.5;"/><line style="stroke:#336699;stroke-width:1.5;" x1="375" x2="433" y1="377.5977" y2="377.5977"/><text fill="#000000" font-family="Arial" font-size="10" font-weight="bold" lengthAdjust="spacing" textLength="41" x="381" y="369.6421">analysis</text></g><!--cluster generation--><g id="cluster_generation"><path d="M242.5,465.0986 L299.5,465.0986 A3.75,3.75 0 0 1 302,467.5986 L309,486.5977 L846.5,486.5977 A2.5,2.5 0 0 1 849,489.0977 L849,547.5986 A2.5,2.5 0 0 1 846.5,550.0986 L242.5,550.0986 A2.5,2.5 0 0 1 240,547.5986 L240,467.5986 A2.5,2.5 0 0 1 242.5,465.0986 " fill="none" style="stroke:#336699;stroke-width:1.5;"/><line style="stroke:#336699;stroke-width:1.5;" x1="240" x2="309" y1="486.5977" y2="486.5977"/><text fill="#000000" font-family="Arial" font-size="10" font-weight="bold" lengthAdjust="spacing" textLength="52" x="246" y="478.6421">generation</text></g><!--cluster ai--><g id="cluster_ai"><path d="M272.5,582.0986 L286.5,582.0986 A3.75,3.75 0 0 1 289,584.5986 L296,603.5977 L1187.5,603.5977 A2.5,2.5 0 0 1 1190,606.0977 L1190,719.5986 A2.5,2.5 0 0 1 1187.5,722.0986 L272.5,722.0986 A2.5,2.5 0 0 1 270,719.5986 L270,584.5986 A2.5,2.5 0 0 1 272.5,582.0986 " fill="none" style="stroke:#336699;stroke-width:1.5;"/><line style="stroke:#336699;stroke-width:1.5;" x1="270" x2="296" y1="603.5977" y2="603.5977"/><text fill="#000000" font-family="Arial" font-size="10" font-weight="bold" lengthAdjust="spacing" textLength="9" x="276" y="595.6421">ai</text></g><!--cluster model--><g id="cluster_model"><path d="M938.5,746.0986 L973.5,746.0986 A3.75,3.75 0 0 1 976,748.5986 L983,767.5977 L1317.5,767.5977 A2.5,2.5 0 0 1 1320,770.0977 L1320,883.5986 A2.5,2.5 0 0 1 1317.5,886.0986 L938.5,886.0986 A2.5,2.5 0 0 1 936,883.5986 L936,748.5986 A2.5,2.5 0 0 1 938.5,746.0986 " fill="none" style="stroke:#336699;stroke-width:1.5;"/><line style="stroke:#336699;stroke-width:1.5;" x1="936" x2="983" y1="767.5977" y2="767.5977"/><text fill="#000000" font-family="Arial" font-size="10" font-weight="bold" lengthAdjust="spacing" textLength="30" x="942" y="759.6421">model</text></g><!--entity CliParser--><g id="elem_CliParser"><rect fill="#DDEEFF" height="35.499" rx="2.5" ry="2.5" style="stroke:#336699;stroke-width:0.5;" width="66" x="48" y="133.0986"/><text fill="#000000" font-family="Arial" font-size="10" lengthAdjust="spacing" textLength="42" x="60" y="154.6421">CliParser</text></g><!--entity Orchestrator--><g id="elem_Orchestrator"><rect fill="#DDEEFF" height="35.499" rx="2.5" ry="2.5" style="stroke:#336699;stroke-width:0.5;" width="81" x="66.5" y="188.0986"/><text fill="#000000" font-family="Arial" font-size="10" lengthAdjust="spacing" textLength="57" x="78.5" y="209.6421">Orchestrator</text></g><!--entity ProcessLauncher--><g id="elem_ProcessLauncher"><rect fill="#DDEEFF" height="35.499" rx="2.5" ry="2.5" style="stroke:#336699;stroke-width:0.5;" width="105" x="22.5" y="281.0986"/><text fill="#000000" font-family="Arial" font-size="10" lengthAdjust="spacing" textLength="81" x="34.5" y="302.6421">ProcessLauncher</text></g><!--entity JsonStorage--><g id="elem_JsonStorage"><rect fill="#DDEEFF" height="35.499" rx="2.5" ry="2.5" style="stroke:#336699;stroke-width:0.5;" width="82" x="50" y="390.0986"/><text fill="#000000" font-family="Arial" font-size="10" lengthAdjust="spacing" textLength="58" x="62" y="411.6421">JsonStorage</text></g><!--entity EnvFileCollector--><g id="elem_EnvFileCollector"><rect fill="#DDEEFF" height="35.499" rx="2.5" ry="2.5" style="stroke:#336699;stroke-width:0.5;" width="103" x="676.5" y="281.0986"/><text fill="#000000" font-family="Arial" font-size="10" lengthAdjust="spacing" textLength="79" x="688.5" y="302.6421">EnvFileCollector</text></g><!--entity ProcessEnvCollector--><g id="elem_ProcessEnvCollector"><rect fill="#DDEEFF" height="35.499" rx="2.5" ry="2.5" style="stroke:#336699;stroke-width:0.5;" width="121" x="537.5" y="281.0986"/><text fill="#000000" font-family="Arial" font-size="10" lengthAdjust="spacing" textLength="97" x="549.5" y="302.6421">ProcessEnvCollector</text></g><!--entity FileSystemCollector--><g id="elem_FileSystemCollector"><rect fill="#DDEEFF" height="35.499" rx="2.5" ry="2.5" style="stroke:#336699;stroke-width:0.5;" width="119" x="400.5" y="281.0986"/><text fill="#000000" font-family="Arial" font-size="10" lengthAdjust="spacing" textLength="95" x="412.5" y="302.6421">FileSystemCollector</text></g><!--entity SourceScanCollector--><g id="elem_SourceScanCollector"><rect fill="#DDEEFF" height="35.499" rx="2.5" ry="2.5" style="stroke:#336699;stroke-width:0.5;" width="126" x="256" y="281.0986"/><text fill="#000000" font-family="Arial" font-size="10" lengthAdjust="spacing" textLength="102" x="268" y="302.6421">SourceScanCollector</text></g><!--entity DependencyAnalyzer--><g id="elem_DependencyAnalyzer"><rect fill="#DDEEFF" height="35.499" rx="2.5" ry="2.5" style="stroke:#336699;stroke-width:0.5;" width="125" x="391.5" y="390.0986"/><text fill="#000000" font-family="Arial" font-size="10" lengthAdjust="spacing" textLength="101" x="403.5" y="411.6421">DependencyAnalyzer</text></g><!--entity ServiceDependencyDetector--><g id="elem_ServiceDependencyDetector"><rect fill="#DDEEFF" height="35.499" rx="2.5" ry="2.5" style="stroke:#336699;stroke-width:0.5;" width="160" x="535" y="390.0986"/><text fill="#000000" font-family="Arial" font-size="10" lengthAdjust="spacing" textLength="136" x="547" y="411.6421">ServiceDependencyDetector</text></g><!--entity MultiRoundAnalyzer--><g id="elem_MultiRoundAnalyzer"><rect fill="#DDEEFF" height="35.499" rx="2.5" ry="2.5" style="stroke:#336699;stroke-width:0.5;" width="120" x="713" y="390.0986"/><text fill="#000000" font-family="Arial" font-size="10" lengthAdjust="spacing" textLength="96" x="725" y="411.6421">MultiRoundAnalyzer</text></g><!--entity DockerfileGenerator--><g id="elem_DockerfileGenerator"><rect fill="#DDEEFF" height="35.499" rx="2.5" ry="2.5" style="stroke:#336699;stroke-width:0.5;" width="118" x="430" y="499.0986"/><text fill="#000000" font-family="Arial" font-size="10" lengthAdjust="spacing" textLength="94" x="442" y="520.6421">DockerfileGenerator</text></g><!--entity ComposeGenerator--><g id="elem_ComposeGenerator"><rect fill="#DDEEFF" height="35.499" rx="2.5" ry="2.5" style="stroke:#336699;stroke-width:0.5;" width="115" x="566.5" y="499.0986"/><text fill="#000000" font-family="Arial" font-size="10" lengthAdjust="spacing" textLength="91" x="578.5" y="520.6421">ComposeGenerator</text></g><!--entity DockerignoreGenerator--><g id="elem_DockerignoreGenerator"><rect fill="#DDEEFF" height="35.499" rx="2.5" ry="2.5" style="stroke:#336699;stroke-width:0.5;" width="133" x="699.5" y="499.0986"/><text fill="#000000" font-family="Arial" font-size="10" lengthAdjust="spacing" textLength="109" x="711.5" y="520.6421">DockerignoreGenerator</text></g><!--entity RecommendationGenerator--><g id="elem_RecommendationGenerator"><rect fill="#DDEEFF" height="35.499" rx="2.5" ry="2.5" style="stroke:#336699;stroke-width:0.5;" width="156" x="256" y="499.0986"/><text fill="#000000" font-family="Arial" font-size="10" lengthAdjust="spacing" textLength="132" x="268" y="520.6421">RecommendationGenerator</text></g><!--entity AiArtifactRefiner--><g id="elem_AiArtifactRefiner"><rect fill="#DDEEFF" height="35.499" rx="2.5" ry="2.5" style="stroke:#336699;stroke-width:0.5;" width="102" x="667" y="616.0986"/><text fill="#000000" font-family="Arial" font-size="10" lengthAdjust="spacing" textLength="78" x="679" y="637.6421">AiArtifactRefiner</text></g><!--entity AiContextCollector--><g id="elem_AiContextCollector"><rect fill="#DDEEFF" height="35.499" rx="2.5" ry="2.5" style="stroke:#336699;stroke-width:0.5;" width="113" x="532.5" y="671.0986"/><text fill="#000000" font-family="Arial" font-size="10" lengthAdjust="spacing" textLength="89" x="544.5" y="692.6421">AiContextCollector</text></g><!--entity AiSecretSanitizer--><g id="elem_AiSecretSanitizer"><rect fill="#DDEEFF" height="35.499" rx="2.5" ry="2.5" style="stroke:#336699;stroke-width:0.5;" width="107" x="286.5" y="671.0986"/><text fill="#000000" font-family="Arial" font-size="10" lengthAdjust="spacing" textLength="83" x="298.5" y="692.6421">AiSecretSanitizer</text></g><!--entity AiPromptBuilder--><g id="elem_AiPromptBuilder"><rect fill="#DDEEFF" height="35.499" rx="2.5" ry="2.5" style="stroke:#336699;stroke-width:0.5;" width="102" x="412" y="671.0986"/><text fill="#000000" font-family="Arial" font-size="10" lengthAdjust="spacing" textLength="78" x="424" y="692.6421">AiPromptBuilder</text></g><!--entity LmStudioAiClient--><g id="elem_LmStudioAiClient"><rect fill="#DDEEFF" height="35.499" rx="2.5" ry="2.5" style="stroke:#336699;stroke-width:0.5;" width="108" x="1066" y="671.0986"/><text fill="#000000" font-family="Arial" font-size="10" lengthAdjust="spacing" textLength="84" x="1078" y="692.6421">LmStudioAiClient</text></g><!--entity UserRequirementCollector--><g id="elem_UserRequirementCollector"><rect fill="#DDEEFF" height="35.499" rx="2.5" ry="2.5" style="stroke:#336699;stroke-width:0.5;" width="148" x="944" y="616.0986"/><text fill="#000000" font-family="Arial" font-size="10" lengthAdjust="spacing" textLength="124" x="956" y="637.6421">UserRequirementCollector</text></g><!--entity AiResponseParser--><g id="elem_AiResponseParser"><rect fill="#DDEEFF" height="35.499" rx="2.5" ry="2.5" style="stroke:#336699;stroke-width:0.5;" width="108" x="664" y="671.0986"/><text fill="#000000" font-family="Arial" font-size="10" lengthAdjust="spacing" textLength="84" x="676" y="692.6421">AiResponseParser</text></g><!--entity AiResponseValidator--><g id="elem_AiResponseValidator"><rect fill="#DDEEFF" height="35.499" rx="2.5" ry="2.5" style="stroke:#336699;stroke-width:0.5;" width="122" x="790" y="671.0986"/><text fill="#000000" font-family="Arial" font-size="10" lengthAdjust="spacing" textLength="98" x="802" y="692.6421">AiResponseValidator</text></g><!--entity ArtifactMergePolicy--><g id="elem_ArtifactMergePolicy"><rect fill="#DDEEFF" height="35.499" rx="2.5" ry="2.5" style="stroke:#336699;stroke-width:0.5;" width="118" x="930" y="671.0986"/><text fill="#000000" font-family="Arial" font-size="10" lengthAdjust="spacing" textLength="94" x="942" y="692.6421">ArtifactMergePolicy</text></g><!--entity RunConfig--><g id="elem_RunConfig"><rect fill="#DDEEFF" height="35.499" rx="2.5" ry="2.5" style="stroke:#336699;stroke-width:0.5;" width="74" x="952" y="780.0986"/><text fill="#000000" font-family="Arial" font-size="10" lengthAdjust="spacing" textLength="50" x="964" y="801.6421">RunConfig</text></g><!--entity RuntimeSnapshot--><g id="elem_RuntimeSnapshot"><rect fill="#DDEEFF" height="35.499" rx="2.5" ry="2.5" style="stroke:#336699;stroke-width:0.5;" width="108" x="1044" y="780.0986"/><text fill="#000000" font-family="Arial" font-size="10" lengthAdjust="spacing" textLength="84" x="1056" y="801.6421">RuntimeSnapshot</text></g><!--entity AppDependencyModel--><g id="elem_AppDependencyModel"><rect fill="#DDEEFF" height="35.499" rx="2.5" ry="2.5" style="stroke:#336699;stroke-width:0.5;" width="133" x="1170.5" y="780.0986"/><text fill="#000000" font-family="Arial" font-size="10" lengthAdjust="spacing" textLength="109" x="1182.5" y="801.6421">AppDependencyModel</text></g><!--entity RunReport--><g id="elem_RunReport"><rect fill="#DDEEFF" height="35.499" rx="2.5" ry="2.5" style="stroke:#336699;stroke-width:0.5;" width="74" x="1061" y="835.0986"/><text fill="#000000" font-family="Arial" font-size="10" lengthAdjust="spacing" textLength="50" x="1073" y="856.6421">RunReport</text></g><!--entity main--><g id="elem_main"><rect fill="#DDEEFF" height="35.499" rx="2.5" ry="2.5" style="stroke:#336699;stroke-width:0.5;" width="48" x="87" y="48.0986"/><text fill="#000000" font-family="Arial" font-size="10" lengthAdjust="spacing" textLength="24" x="99" y="69.6421">Main</text></g><!--link main to CliParser--><g id="link_main_CliParser"><path d="M100.5,83.2086 C100.5,97.7986 100.5,112.4286 100.5,127.0086 " fill="none" id="main-to-CliParser" style="stroke:#181818;stroke-width:1.0;"/><polygon fill="#181818" points="100.5,133.0086,104.5,124.0086,100.5,128.0086,96.5,124.0086,100.5,133.0086" style="stroke:#181818;stroke-width:1.0;"/></g><!--link main to Orchestrator--><g id="link_main_Orchestrator"><path d="M124.5,83.3286 C124.5,110.2586 124.5,155.1686 124.5,182.0086 " fill="none" id="main-to-Orchestrator" style="stroke:#181818;stroke-width:1.0;"/><polygon fill="#181818" points="124.5,188.0086,128.5,179.0086,124.5,183.0086,120.5,179.0086,124.5,188.0086" style="stroke:#181818;stroke-width:1.0;"/></g><!--link CliParser to Orchestrator--><!--link ProcessLauncher to JsonStorage--><!--link EnvFileCollector to DependencyAnalyzer--><!--link DependencyAnalyzer to DockerfileGenerator--><!--link DockerignoreGenerator to AiArtifactRefiner--><!--link ArtifactMergePolicy to RunConfig--><!--link Orchestrator to ProcessLauncher--><g id="link_Orchestrator_ProcessLauncher"><path d="M97,223.5286 C97,240.1086 97,258.5786 97,275.0386 " fill="none" id="Orchestrator-to-ProcessLauncher" style="stroke:#181818;stroke-width:1.0;"/><polygon fill="#181818" points="97,281.0386,101,272.0386,97,276.0386,93,272.0386,97,281.0386" style="stroke:#181818;stroke-width:1.0;"/></g><!--link Orchestrator to EnvFileCollector--><g id="link_Orchestrator_EnvFileCollector"><path d="M147.75,202.0986 C285.9,202.0986 728,202.0986 728,202.0986 C728,202.0986 728,247.0386 728,274.8986 " fill="none" id="Orchestrator-to-EnvFileCollector" style="stroke:#181818;stroke-width:1.0;"/><polygon fill="#181818" points="728,280.8986,732,271.8986,728,275.8986,724,271.8986,728,280.8986" style="stroke:#181818;stroke-width:1.0;"/></g><!--link Orchestrator to ProcessEnvCollector--><g id="link_Orchestrator_ProcessEnvCollector"><path d="M147.6,209.0986 C265.24,209.0986 598,209.0986 598,209.0986 C598,209.0986 598,248.8286 598,274.9186 " fill="none" id="Orchestrator-to-ProcessEnvCollector" style="stroke:#181818;stroke-width:1.0;"/><polygon fill="#181818" points="598,280.9186,602,271.9186,598,275.9186,594,271.9186,598,280.9186" style="stroke:#181818;stroke-width:1.0;"/></g><!--link Orchestrator to FileSystemCollector--><g id="link_Orchestrator_FileSystemCollector"><path d="M147.84,216.0986 C240.76,216.0986 460,216.0986 460,216.0986 C460,216.0986 460,250.4286 460,274.6986 " fill="none" id="Orchestrator-to-FileSystemCollector" style="stroke:#181818;stroke-width:1.0;"/><polygon fill="#181818" points="460,280.6986,464,271.6986,460,275.6986,456,271.6986,460,280.6986" style="stroke:#181818;stroke-width:1.0;"/></g><!--link Orchestrator to SourceScanCollector--><g id="link_Orchestrator_SourceScanCollector"><path d="M145.29,223.1886 C145.29,250.2686 145.29,299.0986 145.29,299.0986 C145.29,299.0986 200.12,299.0986 249.79,299.0986 " fill="none" id="Orchestrator-to-SourceScanCollector" style="stroke:#181818;stroke-width:1.0;"/><polygon fill="#181818" points="255.79,299.0986,246.79,295.0986,250.79,299.0986,246.79,303.0986,255.79,299.0986" style="stroke:#181818;stroke-width:1.0;"/></g><!--link Orchestrator to DependencyAnalyzer--><g id="link_Orchestrator_DependencyAnalyzer"><path d="M147.79,220.0986 C227.46,220.0986 396,220.0986 396,220.0986 C396,220.0986 396,337.2786 396,383.9586 " fill="none" id="Orchestrator-to-DependencyAnalyzer" style="stroke:#181818;stroke-width:1.0;"/><polygon fill="#181818" points="396,389.9586,400,380.9586,396,384.9586,392,380.9586,396,389.9586" style="stroke:#181818;stroke-width:1.0;"/></g><!--link Orchestrator to ServiceDependencyDetector--><g id="link_Orchestrator_ServiceDependencyDetector"><path d="M147.76,206.0986 C276.74,206.0986 667.5,206.0986 667.5,206.0986 C667.5,206.0986 667.5,335.0486 667.5,384.0686 " fill="none" id="Orchestrator-to-ServiceDependencyDetector" style="stroke:#181818;stroke-width:1.0;"/><polygon fill="#181818" points="667.5,390.0686,671.5,381.0686,667.5,385.0686,663.5,381.0686,667.5,390.0686" style="stroke:#181818;stroke-width:1.0;"/></g><!--link Orchestrator to MultiRoundAnalyzer--><g id="link_Orchestrator_MultiRoundAnalyzer"><path d="M147.62,199.0986 C296.85,199.0986 806.25,199.0986 806.25,199.0986 C806.25,199.0986 806.25,333.3986 806.25,383.8186 " fill="none" id="Orchestrator-to-MultiRoundAnalyzer" style="stroke:#181818;stroke-width:1.0;"/><polygon fill="#181818" points="806.25,389.8186,810.25,380.8186,806.25,384.8186,802.25,380.8186,806.25,389.8186" style="stroke:#181818;stroke-width:1.0;"/></g><!--link Orchestrator to DockerfileGenerator--><g id="link_Orchestrator_DockerfileGenerator"><path d="M147.68,213.0986 C253.14,213.0986 527.25,213.0986 527.25,213.0986 C527.25,213.0986 527.25,428.1986 527.25,492.9686 " fill="none" id="Orchestrator-to-DockerfileGenerator" style="stroke:#181818;stroke-width:1.0;"/><polygon fill="#181818" points="527.25,498.9686,531.25,489.9686,527.25,493.9686,523.25,489.9686,527.25,498.9686" style="stroke:#181818;stroke-width:1.0;"/></g><!--link Orchestrator to ComposeGenerator--><g id="link_Orchestrator_ComposeGenerator"><path d="M140.86,223.2786 C140.86,283.2386 140.86,475.0986 140.86,475.0986 C140.86,475.0986 624,475.0986 624,475.0986 C624,475.0986 624,481.5086 624,492.7586 " fill="none" id="Orchestrator-to-ComposeGenerator" style="stroke:#181818;stroke-width:1.0;"/><polygon fill="#181818" points="624,498.7586,628,489.7586,624,493.7586,620,489.7586,624,498.7586" style="stroke:#181818;stroke-width:1.0;"/></g><!--link Orchestrator to DockerignoreGenerator--><g id="link_Orchestrator_DockerignoreGenerator"><path d="M143.07,223.1786 C143.07,279.2486 143.07,450.0986 143.07,450.0986 C143.07,450.0986 706.25,450.0986 706.25,450.0986 C706.25,450.0986 706.25,473.0786 706.25,492.7786 " fill="none" id="Orchestrator-to-DockerignoreGenerator" style="stroke:#181818;stroke-width:1.0;"/><polygon fill="#181818" points="706.25,498.7786,710.25,489.7786,706.25,493.7786,702.25,489.7786,706.25,498.7786" style="stroke:#181818;stroke-width:1.0;"/></g><!--link Orchestrator to RecommendationGenerator--><g id="link_Orchestrator_RecommendationGenerator"><path d="M138.64,223.2386 C138.64,289.1386 138.64,517.0986 138.64,517.0986 C138.64,517.0986 195.53,517.0986 249.95,517.0986 " fill="none" id="Orchestrator-to-RecommendationGenerator" style="stroke:#181818;stroke-width:1.0;"/><polygon fill="#181818" points="255.95,517.0986,246.95,513.0986,250.95,517.0986,246.95,521.0986,255.95,517.0986" style="stroke:#181818;stroke-width:1.0;"/></g><!--link Orchestrator to AiArtifactRefiner--><g id="link_Orchestrator_AiArtifactRefiner"><path d="M136.43,223.2686 C136.43,302.7386 136.43,623.0986 136.43,623.0986 C136.43,623.0986 518.98,623.0986 660.9,623.0986 " fill="none" id="Orchestrator-to-AiArtifactRefiner" style="stroke:#181818;stroke-width:1.0;"/><polygon fill="#181818" points="666.9,623.0986,657.9,619.0986,661.9,623.0986,657.9,627.0986,666.9,623.0986" style="stroke:#181818;stroke-width:1.0;"/></g><!--link Orchestrator to JsonStorage--><g id="link_Orchestrator_JsonStorage"><path d="M134.21,223.2186 C134.21,272.4786 134.21,408.0986 134.21,408.0986 C134.21,408.0986 139.45,408.0986 138.13,408.0986 " fill="none" id="Orchestrator-to-JsonStorage" style="stroke:#181818;stroke-width:1.0;"/><polygon fill="#181818" points="132.13,408.0986,141.13,412.0986,137.13,408.0986,141.13,404.0986,132.13,408.0986" style="stroke:#181818;stroke-width:1.0;"/></g><!--link AiArtifactRefiner to AiContextCollector--><g id="link_AiArtifactRefiner_AiContextCollector"><path d="M666.92,644.0986 C637.38,644.0986 606,644.0986 606,644.0986 C606,644.0986 606,652.5686 606,665.0086 " fill="none" id="AiArtifactRefiner-to-AiContextCollector" style="stroke:#181818;stroke-width:1.0;"/><polygon fill="#181818" points="606,671.0086,610,662.0086,606,666.0086,602,662.0086,606,671.0086" style="stroke:#181818;stroke-width:1.0;"/></g><!--link AiArtifactRefiner to AiSecretSanitizer--><g id="link_AiArtifactRefiner_AiSecretSanitizer"><path d="M666.63,630.0986 C563.28,630.0986 340,630.0986 340,630.0986 C340,630.0986 340,647.8186 340,665.0486 " fill="none" id="AiArtifactRefiner-to-AiSecretSanitizer" style="stroke:#181818;stroke-width:1.0;"/><polygon fill="#181818" points="340,671.0486,344,662.0486,340,666.0486,336,662.0486,340,671.0486" style="stroke:#181818;stroke-width:1.0;"/></g><!--link AiArtifactRefiner to AiPromptBuilder--><g id="link_AiArtifactRefiner_AiPromptBuilder"><path d="M666.73,637.0986 C594.63,637.0986 472,637.0986 472,637.0986 C472,637.0986 472,649.9786 472,664.8786 " fill="none" id="AiArtifactRefiner-to-AiPromptBuilder" style="stroke:#181818;stroke-width:1.0;"/><polygon fill="#181818" points="472,670.8786,476,661.8786,472,665.8786,468,661.8786,472,670.8786" style="stroke:#181818;stroke-width:1.0;"/></g><!--link AiArtifactRefiner to LmStudioAiClient--><g id="link_AiArtifactRefiner_LmStudioAiClient"><path d="M735,651.1686 C735,656.5586 735,661.0986 735,661.0986 C735,661.0986 1079,661.0986 1079,661.0986 C1079,661.0986 1079,659.6386 1079,665.0286 " fill="none" id="AiArtifactRefiner-to-LmStudioAiClient" style="stroke:#181818;stroke-width:1.0;"/><polygon fill="#181818" points="1079,671.0286,1083,662.0286,1079,666.0286,1075,662.0286,1079,671.0286" style="stroke:#181818;stroke-width:1.0;"/></g><!--link AiArtifactRefiner to AiResponseParser--><g id="link_AiArtifactRefiner_AiResponseParser"><path d="M701,651.3086 C701,657.5886 701,658.6486 701,664.9286 " fill="none" id="AiArtifactRefiner-to-AiResponseParser" style="stroke:#181818;stroke-width:1.0;"/><polygon fill="#181818" points="701,670.9286,705,661.9286,701,665.9286,697,661.9286,701,670.9286" style="stroke:#181818;stroke-width:1.0;"/></g><!--link AiArtifactRefiner to AiResponseValidator--><g id="link_AiArtifactRefiner_AiResponseValidator"><path d="M769.26,640.0986 C790.93,640.0986 811.25,640.0986 811.25,640.0986 C811.25,640.0986 811.25,651.1986 811.25,665.0886 " fill="none" id="AiArtifactRefiner-to-AiResponseValidator" style="stroke:#181818;stroke-width:1.0;"/><polygon fill="#181818" points="811.25,671.0886,815.25,662.0886,811.25,666.0886,807.25,662.0886,811.25,671.0886" style="stroke:#181818;stroke-width:1.0;"/></g><!--link AiArtifactRefiner to ArtifactMergePolicy--><g id="link_AiArtifactRefiner_ArtifactMergePolicy"><path d="M769.07,628.0986 C833.78,628.0986 937,628.0986 937,628.0986 C937,628.0986 937,646.9286 937,664.7786 " fill="none" id="AiArtifactRefiner-to-ArtifactMergePolicy" style="stroke:#181818;stroke-width:1.0;"/><polygon fill="#181818" points="937,670.7786,941,661.7786,937,665.7786,933,661.7786,937,670.7786" style="stroke:#181818;stroke-width:1.0;"/></g><!--link Orchestrator to UserRequirementCollector--><g id="link_Orchestrator_UserRequirementCollector"><path d="M147.62,195.0986 C324.4,195.0986 1018,195.0986 1018,195.0986 C1018,195.0986 1018,527.8286 1018,609.8686 " fill="none" id="Orchestrator-to-UserRequirementCollector" style="stroke:#181818;stroke-width:1.0;"/><polygon fill="#181818" points="1018,615.8686,1022,606.8686,1018,610.8686,1014,606.8686,1018,615.8686" style="stroke:#181818;stroke-width:1.0;"/></g><!--link Orchestrator to LmStudioAiClient--><g id="link_Orchestrator_LmStudioAiClient"><path d="M147.54,192.0986 C337.8,192.0986 1133,192.0986 1133,192.0986 C1133,192.0986 1133,576.4786 1133,664.9286 " fill="none" id="Orchestrator-to-LmStudioAiClient" style="stroke:#181818;stroke-width:1.0;"/><polygon fill="#181818" points="1133,670.9286,1137,661.9286,1133,665.9286,1129,661.9286,1133,670.9286" style="stroke:#181818;stroke-width:1.0;"/></g><!--SRC=[ZLJBRjD05DtxAqQmhaHRLD4DKfeq8DH2PGERAelH-CQvodZ6p8nRKbIfKB5cmm_m1rt0WkStEB_0bt0Tvs77auXD7lUS-vZxE7QCAkE6foo68S-bwslbdlCKMCSWbu7ruH5U0TjzK0CbAd2J39WsRgHhWD8nMCZOxgEQqN0rBerxzH0PZsDK2TjhsCIO9t0sXnxM8A7JJ2kWOjn40ZCW75U9X1gbOuo-V3b2CLPWBTlrURDt0MD7b2OnEbTnLqjjsFrUx_YutoyHRM8mS-l-_i71uM5mtIwmYkBb1WuTrLTycNwOtanlYn_qVJkzANuNTzDFRFf- -h7uLlmgxXXz_2c-4kCd6RwplpUVMGXFjNLWWk3ybACQC6vPIZ-2O97tdj06xitIdtSbdd5ZmGpAVo-C685rXZjT6SwC5jI64vuhGYhRCwjLH0GADPZLgXDm1Cu2rd98IUtLfaf4ViVgeeyIkWjWK9ddAGXTHqfsDA6tfEj8f7CZ819SDH0gfbO1LrnEBDfb0Jt8GCMWnAHJGbUm30Vc0WMiy1wuUhfJMc4Cor7N7PlP4b10VKEjLlcq68CPqYkULE0oOBVS9DioLmwOA9hFEXO2hLzAzSroDD3hSWghP-Dyj1ti68T3Bbm8GpgrQdeTxD8nmblNw1oP8n06NCGLEhnQacawQUQESfJnt7QIHYwFKLCWYNGCC-Chsg0GtkHeW6finGx1qkLOgAtQolYQIuoN6xUe-HGCtR2MA2Q3nljI4WSvVsAOqmAe8IQ3-J-7AKIAPtQagy8wMROQwsdfkg26a97kp6ANvy5sTXutpc5bR5v5ZSDspaSOK-Y1XxP-EarouuZQfz4a-nRNPrppygtVXXrRUSRwKfNUdktnpgRjMHjAioTLDrkIuYErjM9BgAPq-8XU9V4HlSBY8tf7uWkuMLfyT9_IUDDxP-iXjfLcSxYMyFYe6tN8H_OjaOVMF8Qsqo9OMxcsa5jwjeMxfd8RcMtjsn9qNVJ-WrgJmiridq3wkhfPattizjF-0G00]--></g></svg>