<?xml version="1.0" encoding="us-ascii" standalone="no"?><svg xmlns="http://www.w3.org/2000/svg" xmlns:xlink="http://www.w3.org/1999/xlink" contentStyleType="text/css" height="1134px" preserveAspectRatio="none" style="width:565px;height:1134px;background:#FFFFFF;" version="1.1" viewBox="0 0 565 1134" width="565px" zoomAndPan="magnify"><defs/><g><text fill="#000000" font-family="Arial" font-size="14" font-weight="bold" lengthAdjust="spacing" textLength="388" x="87.25" y="33.3608">&#1044;&#1080;&#1072;&#1075;&#1088;&#1072;&#1084;&#1084;&#1072; &#1072;&#1082;&#1090;&#1080;&#1074;&#1085;&#1086;&#1089;&#1090;&#1080; &#8212; ServiceDependencyDetector</text><ellipse cx="245" cy="57.0986" fill="#222222" rx="10" ry="10" style="stroke:#222222;stroke-width:1.0;"/><rect fill="#FEFECE" height="47.5977" rx="12.5" ry="12.5" style="stroke:#A80036;stroke-width:0.5;" width="176" x="157" y="87.0986"/><text fill="#000000" font-family="Arial" font-size="12" lengthAdjust="spacing" textLength="156" x="167" y="108.5508">&#1055;&#1086;&#1083;&#1091;&#1095;&#1080;&#1090;&#1100; RuntimeSnapshot</text><text fill="#000000" font-family="Arial" font-size="12" lengthAdjust="spacing" textLength="130" x="167" y="122.3496">+ &#1088;&#1072;&#1073;&#1086;&#1095;&#1091;&#1102; &#1076;&#1080;&#1088;&#1077;&#1082;&#1090;&#1086;&#1088;&#1080;&#1102;</text><path d="M319.5,144.6963 L319.5,173.2939 L299.5,177.2939 L319.5,181.2939 L319.5,209.8916 A0,0 0 0 0 319.5,209.8916 L553.5,209.8916 A0,0 0 0 0 553.5,209.8916 L553.5,154.6963 L543.5,144.6963 L319.5,144.6963 A0,0 0 0 0 319.5,144.6963 " fill="#FEFFDD" style="stroke:#181818;stroke-width:0.5;"/><path d="M543.5,144.6963 L543.5,154.6963 L553.5,154.6963 L543.5,144.6963 " fill="#FEFFDD" style="stroke:#181818;stroke-width:0.5;"/><text fill="#000000" font-family="Arial" font-size="12" lengthAdjust="spacing" textLength="71" x="325.5" y="161.1484">&#1048;&#1097;&#1077;&#1090; &#1082;&#1083;&#1102;&#1095;&#1080;:</text><text fill="#000000" font-family="Arial" font-size="12" lengthAdjust="spacing" textLength="159" x="325.5" y="174.9473">DB_HOST, DATABASE_URL,</text><text fill="#000000" font-family="Arial" font-size="12" lengthAdjust="spacing" textLength="151" x="325.5" y="188.7461">REDIS_URL, MONGO_URI,</text><text fill="#000000" font-family="Arial" font-size="12" lengthAdjust="spacing" textLength="213" x="325.5" y="202.5449">RABBIT_URL, KAFKA_BROKERS &#1080; &#1076;&#1088;.</text><rect fill="#FEFECE" height="33.7988" rx="12.5" ry="12.5" style="stroke:#A80036;stroke-width:0.5;" width="109" x="190.5" y="160.3945"/><text fill="#000000" font-family="Arial" font-size="12" lengthAdjust="spacing" textLength="89" x="200.5" y="181.8467">&#1040;&#1085;&#1072;&#1083;&#1080;&#1079; env vars</text><rect fill="#FEFECE" height="47.5977" rx="12.5" ry="12.5" style="stroke:#A80036;stroke-width:0.5;" width="180" x="155" y="229.8916"/><text fill="#000000" font-family="Arial" font-size="12" lengthAdjust="spacing" textLength="160" x="165" y="251.3438">&#1057;&#1086;&#1079;&#1076;&#1072;&#1090;&#1100; ServiceDependency</text><text fill="#000000" font-family="Arial" font-size="12" lengthAdjust="spacing" textLength="92" x="165" y="265.1426">&#1076;&#1083;&#1103; &#1089;&#1086;&#1074;&#1087;&#1072;&#1076;&#1077;&#1085;&#1080;&#1081;</text><rect fill="#555555" height="6" rx="2.5" ry="2.5" style="stroke:#555555;stroke-width:1.0;" width="480" x="11" y="297.4893"/><rect fill="#FEFECE" height="33.7988" rx="12.5" ry="12.5" style="stroke:#A80036;stroke-width:0.5;" width="109" x="61.5" y="323.4893"/><text fill="#000000" font-family="Arial" font-size="12" lengthAdjust="spacing" textLength="89" x="71.5" y="344.9414">&#1063;&#1080;&#1090;&#1072;&#1090;&#1100; pom.xml</text><rect fill="#FEFECE" height="33.7988" rx="12.5" ry="12.5" style="stroke:#A80036;stroke-width:0.5;" width="186" x="23" y="433.3828"/><text fill="#000000" font-family="Arial" font-size="12" lengthAdjust="spacing" textLength="166" x="33" y="454.835">&#1044;&#1086;&#1073;&#1072;&#1074;&#1080;&#1090;&#1100; ServiceDependency</text><polygon fill="#FEFECE" points="36.5,380.8857,195.5,380.8857,207.5,394.6846,195.5,408.4834,36.5,408.4834,24.5,394.6846,36.5,380.8857" style="stroke:#A80036;stroke-width:0.5;"/><text fill="#000000" font-family="Arial" font-size="12" lengthAdjust="spacing" textLength="14" x="120" y="419.9355">&#1076;&#1072;</text><text fill="#000000" font-family="Arial" font-size="12" lengthAdjust="spacing" textLength="159" x="36.5" y="392.3379">&#1045;&#1089;&#1090;&#1100; spring-data / hibernate /</text><text fill="#000000" font-family="Arial" font-size="12" lengthAdjust="spacing" textLength="73" x="36.5" y="406.1367">redis / kafka?</text><polygon fill="#FEFECE" points="116,490.7793,128,502.7793,116,514.7793,104,502.7793,116,490.7793" style="stroke:#A80036;stroke-width:0.5;"/><rect fill="#FEFECE" height="33.7988" rx="12.5" ry="12.5" style="stroke:#A80036;stroke-width:0.5;" width="136" x="48" y="538.377"/><text fill="#000000" font-family="Arial" font-size="12" lengthAdjust="spacing" textLength="116" x="58" y="559.8291">&#1063;&#1080;&#1090;&#1072;&#1090;&#1100; package.json</text><rect fill="#FEFECE" height="33.7988" rx="12.5" ry="12.5" style="stroke:#A80036;stroke-width:0.5;" width="186" x="23" y="648.2705"/><text fill="#000000" font-family="Arial" font-size="12" lengthAdjust="spacing" textLength="166" x="33" y="669.7227">&#1044;&#1086;&#1073;&#1072;&#1074;&#1080;&#1090;&#1100; ServiceDependency</text><polygon fill="#FEFECE" points="57,595.7734,175,595.7734,187,609.5723,175,623.3711,57,623.3711,45,609.5723,57,595.7734" style="stroke:#A80036;stroke-width:0.5;"/><text fill="#000000" font-family="Arial" font-size="12" lengthAdjust="spacing" textLength="14" x="120" y="634.8232">&#1076;&#1072;</text><text fill="#000000" font-family="Arial" font-size="12" lengthAdjust="spacing" textLength="118" x="57" y="607.2256">&#1045;&#1089;&#1090;&#1100; mongoose / pg /</text><text fill="#000000" font-family="Arial" font-size="12" lengthAdjust="spacing" textLength="89" x="57" y="621.0244">redis / amqplib?</text><polygon fill="#FEFECE" points="116,702.0693,128,714.0693,116,726.0693,104,714.0693,116,702.0693" style="stroke:#A80036;stroke-width:0.5;"/><rect fill="#FEFECE" height="33.7988" rx="12.5" ry="12.5" style="stroke:#A80036;stroke-width:0.5;" width="150" x="41" y="746.0693"/><text fill="#000000" font-family="Arial" font-size="12" lengthAdjust="spacing" textLength="130" x="51" y="767.5215">&#1063;&#1080;&#1090;&#1072;&#1090;&#1100; requirements.txt</text><rect fill="#FEFECE" height="33.7988" rx="12.5" ry="12.5" style="stroke:#A80036;stroke-width:0.5;" width="186" x="23" y="852.3652"/><text fill="#000000" font-family="Arial" font-size="12" lengthAdjust="spacing" textLength="166" x="33" y="873.8174">&#1044;&#1086;&#1073;&#1072;&#1074;&#1080;&#1090;&#1100; ServiceDependency</text><polygon fill="#FEFECE" points="42,799.8682,190,799.8682,202,813.667,190,827.4658,42,827.4658,30,813.667,42,799.8682" style="stroke:#A80036;stroke-width:0.5;"/><text fill="#000000" font-family="Arial" font-size="12" lengthAdjust="spacing" textLength="14" x="120" y="838.918">&#1076;&#1072;</text><text fill="#000000" font-family="Arial" font-size="12" lengthAdjust="spacing" textLength="148" x="42" y="811.3203">&#1045;&#1089;&#1090;&#1100; psycopg2 / pymongo /</text><text fill="#000000" font-family="Arial" font-size="12" lengthAdjust="spacing" textLength="76" x="42" y="825.1191">redis / celery?</text><polygon fill="#FEFECE" points="116,909.7617,128,921.7617,116,933.7617,104,921.7617,116,909.7617" style="stroke:#A80036;stroke-width:0.5;"/><rect fill="#FEFECE" height="33.7988" rx="12.5" ry="12.5" style="stroke:#A80036;stroke-width:0.5;" width="145" x="289.5" y="327.0869"/><text fill="#000000" font-family="Arial" font-size="12" lengthAdjust="spacing" textLength="125" x="299.5" y="348.5391">&#1063;&#1080;&#1090;&#1072;&#1090;&#1100; composer.json</text><rect fill="#FEFECE" height="33.7988" rx="12.5" ry="12.5" style="stroke:#A80036;stroke-width:0.5;" width="186" x="269" y="436.9805"/><text fill="#000000" font-family="Arial" font-size="12" lengthAdjust="spacing" textLength="166" x="279" y="458.4326">&#1044;&#1086;&#1073;&#1072;&#1074;&#1080;&#1090;&#1100; ServiceDependency</text><polygon fill="#FEFECE" points="314.5,384.4834,409.5,384.4834,421.5,398.2822,409.5,412.0811,314.5,412.0811,302.5,398.2822,314.5,384.4834" style="stroke:#A80036;stroke-width:0.5;"/><text fill="#000000" font-family="Arial" font-size="12" lengthAdjust="spacing" textLength="14" x="366" y="423.5332">&#1076;&#1072;</text><text fill="#000000" font-family="Arial" font-size="12" lengthAdjust="spacing" textLength="71" x="314.5" y="395.9355">&#1045;&#1089;&#1090;&#1100; laravel /</text><text fill="#000000" font-family="Arial" font-size="12" lengthAdjust="spacing" textLength="95" x="314.5" y="409.7344">predis / doctrine?</text><polygon fill="#FEFECE" points="362,494.377,374,506.377,362,518.377,350,506.377,362,494.377" style="stroke:#A80036;stroke-width:0.5;"/><rect fill="#FEFECE" height="33.7988" rx="12.5" ry="12.5" style="stroke:#A80036;stroke-width:0.5;" width="177" x="273.5" y="541.9746"/><text fill="#000000" font-family="Arial" font-size="12" lengthAdjust="spacing" textLength="157" x="283.5" y="563.4268">&#1063;&#1080;&#1090;&#1072;&#1090;&#1100; docker-compose.yml</text><rect fill="#FEFECE" height="33.7988" rx="12.5" ry="12.5" style="stroke:#A80036;stroke-width:0.5;" width="186" x="269" y="648.2705"/><text fill="#000000" font-family="Arial" font-size="12" lengthAdjust="spacing" textLength="166" x="279" y="669.7227">&#1044;&#1086;&#1073;&#1072;&#1074;&#1080;&#1090;&#1100; ServiceDependency</text><polygon fill="#FEFECE" points="295.5,599.3711,428.5,599.3711,440.5,611.3711,428.5,623.3711,295.5,623.3711,283.5,611.3711,295.5,599.3711" style="stroke:#A80036;stroke-width:0.5;"/><text fill="#000000" font-family="Arial" font-size="12" lengthAdjust="spacing" textLength="14" x="366" y="634.8232">&#1076;&#1072;</text><text fill="#000000" font-family="Arial" font-size="12" lengthAdjust="spacing" textLength="133" x="295.5" y="615.9238">&#1045;&#1089;&#1090;&#1100; &#1089;&#1077;&#1088;&#1074;&#1080;&#1089;&#1099; &#1041;&#1044; / &#1082;&#1101;&#1096;?</text><polygon fill="#FEFECE" points="362,702.0693,374,714.0693,362,726.0693,350,714.0693,362,702.0693" style="stroke:#A80036;stroke-width:0.5;"/><rect fill="#FEFECE" height="33.7988" rx="12.5" ry="12.5" style="stroke:#A80036;stroke-width:0.5;" width="157" x="283.5" y="746.0693"/><text fill="#000000" font-family="Arial" font-size="12" lengthAdjust="spacing" textLength="137" x="293.5" y="767.5215">&#1057;&#1082;&#1072;&#1085;&#1080;&#1088;&#1086;&#1074;&#1072;&#1090;&#1100; &#1080;&#1089;&#1093;&#1086;&#1076;&#1085;&#1080;&#1082;&#1080;</text><rect fill="#FEFECE" height="33.7988" rx="12.5" ry="12.5" style="stroke:#A80036;stroke-width:0.5;" width="180" x="272" y="848.7676"/><text fill="#000000" font-family="Arial" font-size="12" lengthAdjust="spacing" textLength="160" x="282" y="870.2197">&#1044;&#1086;&#1073;&#1072;&#1074;&#1080;&#1090;&#1100; Kafka + Zookeeper</text><polygon fill="#FEFECE" points="290.5,799.8682,433.5,799.8682,445.5,811.8682,433.5,823.8682,290.5,823.8682,278.5,811.8682,290.5,799.8682" style="stroke:#A80036;stroke-width:0.5;"/><text fill="#000000" font-family="Arial" font-size="12" lengthAdjust="spacing" textLength="14" x="366" y="835.3203">&#1076;&#1072;</text><text fill="#000000" font-family="Arial" font-size="12" lengthAdjust="spacing" textLength="143" x="290.5" y="816.4209">&#1053;&#1072;&#1081;&#1076;&#1077;&#1085;&#1099; Kafka import'&#1099;?</text><polygon fill="#FEFECE" points="362,906.1641,374,918.1641,362,930.1641,350,918.1641,362,906.1641" style="stroke:#A80036;stroke-width:0.5;"/><rect fill="#555555" height="6" rx="2.5" ry="2.5" style="stroke:#555555;stroke-width:1.0;" width="480" x="11" y="953.7617"/><rect fill="#FEFECE" height="47.5977" rx="12.5" ry="12.5" style="stroke:#A80036;stroke-width:0.5;" width="185" x="152.5" y="979.7617"/><text fill="#000000" font-family="Arial" font-size="12" lengthAdjust="spacing" textLength="165" x="162.5" y="1001.2139">&#1044;&#1077;&#1076;&#1091;&#1087;&#1083;&#1080;&#1082;&#1072;&#1094;&#1080;&#1103; &#1079;&#1072;&#1074;&#1080;&#1089;&#1080;&#1084;&#1086;&#1089;&#1090;&#1077;&#1081;</text><text fill="#000000" font-family="Arial" font-size="12" lengthAdjust="spacing" textLength="98" x="162.5" y="1015.0127">(&#1087;&#1086; &#1090;&#1080;&#1087;&#1091; &#1089;&#1077;&#1088;&#1074;&#1080;&#1089;&#1072;)</text><rect fill="#FEFECE" height="33.7988" rx="12.5" ry="12.5" style="stroke:#A80036;stroke-width:0.5;" width="212" x="139" y="1047.3594"/><text fill="#000000" font-family="Arial" font-size="12" lengthAdjust="spacing" textLength="192" x="149" y="1068.8115">&#1042;&#1077;&#1088;&#1085;&#1091;&#1090;&#1100; List&lt;ServiceDependency&gt;</text><ellipse cx="245" cy="1112.1582" fill="none" rx="11" ry="11" style="stroke:#222222;stroke-width:1.0;"/><ellipse cx="245" cy="1112.1582" fill="#222222" rx="6" ry="6" style="stroke:#222222;stroke-width:1.0;"/><line style="stroke:#181818;stroke-width:1.0;" x1="245" x2="245" y1="67.0986" y2="87.0986"/><polygon fill="#181818" points="241,77.0986,245,87.0986,249,77.0986,245,81.0986" style="stroke:#181818;stroke-width:1.0;"/><line style="stroke:#181818;stroke-width:1.0;" x1="245" x2="245" y1="134.6963" y2="160.3945"/><polygon fill="#181818" points="241,150.3945,245,160.3945,249,150.3945,245,154.3945" style="stroke:#181818;stroke-width:1.0;"/><line style="stroke:#181818;stroke-width:1.0;" x1="245" x2="245" y1="194.1934" y2="229.8916"/><polygon fill="#181818" points="241,219.8916,245,229.8916,249,219.8916,245,223.8916" style="stroke:#181818;stroke-width:1.0;"/><line style="stroke:#181818;stroke-width:1.0;" x1="116" x2="116" y1="408.4834" y2="433.3828"/><polygon fill="#181818" points="112,423.3828,116,433.3828,120,423.3828,116,427.3828" style="stroke:#181818;stroke-width:1.0;"/><line style="stroke:#181818;stroke-width:1.0;" x1="207.5" x2="219.5" y1="394.6846" y2="394.6846"/><polygon fill="#181818" points="215.5,439.3828,219.5,449.3828,223.5,439.3828,219.5,443.3828" style="stroke:#181818;stroke-width:1.0;"/><line style="stroke:#181818;stroke-width:1.0;" x1="219.5" x2="219.5" y1="394.6846" y2="502.7793"/><line style="stroke:#181818;stroke-width:1.0;" x1="219.5" x2="128" y1="502.7793" y2="502.7793"/><polygon fill="#181818" points="138,498.7793,128,502.7793,138,506.7793,134,502.7793" style="stroke:#181818;stroke-width:1.0;"/><line style="stroke:#181818;stroke-width:1.0;" x1="116" x2="116" y1="467.1816" y2="490.7793"/><polygon fill="#181818" points="112,480.7793,116,490.7793,120,480.7793,116,484.7793" style="stroke:#181818;stroke-width:1.0;"/><line style="stroke:#181818;stroke-width:1.0;" x1="116" x2="116" y1="357.2881" y2="380.8857"/><polygon fill="#181818" points="112,370.8857,116,380.8857,120,370.8857,116,374.8857" style="stroke:#181818;stroke-width:1.0;"/><line style="stroke:#181818;stroke-width:1.0;" x1="116" x2="116" y1="514.7793" y2="538.377"/><polygon fill="#181818" points="112,528.377,116,538.377,120,528.377,116,532.377" style="stroke:#181818;stroke-width:1.0;"/><line style="stroke:#181818;stroke-width:1.0;" x1="116" x2="116" y1="623.3711" y2="648.2705"/><polygon fill="#181818" points="112,638.2705,116,648.2705,120,638.2705,116,642.2705" style="stroke:#181818;stroke-width:1.0;"/><line style="stroke:#181818;stroke-width:1.0;" x1="187" x2="219" y1="609.5723" y2="609.5723"/><polygon fill="#181818" points="215,654.2705,219,664.2705,223,654.2705,219,658.2705" style="stroke:#181818;stroke-width:1.0;"/><line style="stroke:#181818;stroke-width:1.0;" x1="219" x2="219" y1="609.5723" y2="714.0693"/><line style="stroke:#181818;stroke-width:1.0;" x1="219" x2="128" y1="714.0693" y2="714.0693"/><polygon fill="#181818" points="138,710.0693,128,714.0693,138,718.0693,134,714.0693" style="stroke:#181818;stroke-width:1.0;"/><line style="stroke:#181818;stroke-width:1.0;" x1="116" x2="116" y1="682.0693" y2="702.0693"/><polygon fill="#181818" points="112,692.0693,116,702.0693,120,692.0693,116,696.0693" style="stroke:#181818;stroke-width:1.0;"/><line style="stroke:#181818;stroke-width:1.0;" x1="116" x2="116" y1="572.1758" y2="595.7734"/><polygon fill="#181818" points="112,585.7734,116,595.7734,120,585.7734,116,589.7734" style="stroke:#181818;stroke-width:1.0;"/><line style="stroke:#181818;stroke-width:1.0;" x1="116" x2="116" y1="726.0693" y2="746.0693"/><polygon fill="#181818" points="112,736.0693,116,746.0693,120,736.0693,116,740.0693" style="stroke:#181818;stroke-width:1.0;"/><line style="stroke:#181818;stroke-width:1.0;" x1="116" x2="116" y1="827.4658" y2="852.3652"/><polygon fill="#181818" points="112,842.3652,116,852.3652,120,842.3652,116,846.3652" style="stroke:#181818;stroke-width:1.0;"/><line style="stroke:#181818;stroke-width:1.0;" x1="202" x2="219" y1="813.667" y2="813.667"/><polygon fill="#181818" points="215,858.3652,219,868.3652,223,858.3652,219,862.3652" style="stroke:#181818;stroke-width:1.0;"/><line style="stroke:#181818;stroke-width:1.0;" x1="219" x2="219" y1="813.667" y2="921.7617"/><line style="stroke:#181818;stroke-width:1.0;" x1="219" x2="128" y1="921.7617" y2="921.7617"/><polygon fill="#181818" points="138,917.7617,128,921.7617,138,925.7617,134,921.7617" style="stroke:#181818;stroke-width:1.0;"/><line style="stroke:#181818;stroke-width:1.0;" x1="116" x2="116" y1="886.1641" y2="909.7617"/><polygon fill="#181818" points="112,899.7617,116,909.7617,120,899.7617,116,903.7617" style="stroke:#181818;stroke-width:1.0;"/><line style="stroke:#181818;stroke-width:1.0;" x1="116" x2="116" y1="779.8682" y2="799.8682"/><polygon fill="#181818" points="112,789.8682,116,799.8682,120,789.8682,116,793.8682" style="stroke:#181818;stroke-width:1.0;"/><line style="stroke:#181818;stroke-width:1.0;" x1="362" x2="362" y1="412.0811" y2="436.9805"/><polygon fill="#181818" points="358,426.9805,362,436.9805,366,426.9805,362,430.9805" style="stroke:#181818;stroke-width:1.0;"/><line style="stroke:#181818;stroke-width:1.0;" x1="421.5" x2="465" y1="398.2822" y2="398.2822"/><polygon fill="#181818" points="461,442.9805,465,452.9805,469,442.9805,465,446.9805" style="stroke:#181818;stroke-width:1.0;"/><line style="stroke:#181818;stroke-width:1.0;" x1="465" x2="465" y1="398.2822" y2="506.377"/><line style="stroke:#181818;stroke-width:1.0;" x1="465" x2="374" y1="506.377" y2="506.377"/><polygon fill="#181818" points="384,502.377,374,506.377,384,510.377,380,506.377" style="stroke:#181818;stroke-width:1.0;"/><line style="stroke:#181818;stroke-width:1.0;" x1="362" x2="362" y1="470.7793" y2="494.377"/><polygon fill="#181818" points="358,484.377,362,494.377,366,484.377,362,488.377" style="stroke:#181818;stroke-width:1.0;"/><line style="stroke:#181818;stroke-width:1.0;" x1="362" x2="362" y1="360.8857" y2="384.4834"/><polygon fill="#181818" points="358,374.4834,362,384.4834,366,374.4834,362,378.4834" style="stroke:#181818;stroke-width:1.0;"/><line style="stroke:#181818;stroke-width:1.0;" x1="362" x2="362" y1="518.377" y2="541.9746"/><polygon fill="#181818" points="358,531.9746,362,541.9746,366,531.9746,362,535.9746" style="stroke:#181818;stroke-width:1.0;"/><line style="stroke:#181818;stroke-width:1.0;" x1="362" x2="362" y1="623.3711" y2="648.2705"/><polygon fill="#181818" points="358,638.2705,362,648.2705,366,638.2705,362,642.2705" style="stroke:#181818;stroke-width:1.0;"/><line style="stroke:#181818;stroke-width:1.0;" x1="440.5" x2="465" y1="611.3711" y2="611.3711"/><polygon fill="#181818" points="461,655.1699,465,665.1699,469,655.1699,465,659.1699" style="stroke:#181818;stroke-width:1.0;"/><line style="stroke:#181818;stroke-width:1.0;" x1="465" x2="465" y1="611.3711" y2="714.0693"/><line style="stroke:#181818;stroke-width:1.0;" x1="465" x2="374" y1="714.0693" y2="714.0693"/><polygon fill="#181818" points="384,710.0693,374,714.0693,384,718.0693,380,714.0693" style="stroke:#181818;stroke-width:1.0;"/><line style="stroke:#181818;stroke-width:1.0;" x1="362" x2="362" y1="682.0693" y2="702.0693"/><polygon fill="#181818" points="358,692.0693,362,702.0693,366,692.0693,362,696.0693" style="stroke:#181818;stroke-width:1.0;"/><line style="stroke:#181818;stroke-width:1.0;" x1="362" x2="362" y1="575.7734" y2="599.3711"/><polygon fill="#181818" points="358,589.3711,362,599.3711,366,589.3711,362,593.3711" style="stroke:#181818;stroke-width:1.0;"/><line style="stroke:#181818;stroke-width:1.0;" x1="362" x2="362" y1="726.0693" y2="746.0693"/><polygon fill="#181818" points="358,736.0693,362,746.0693,366,736.0693,362,740.0693" style="stroke:#181818;stroke-width:1.0;"/><line style="stroke:#181818;stroke-width:1.0;" x1="362" x2="362" y1="823.8682" y2="848.7676"/><polygon fill="#181818" points="358,838.7676,362,848.7676,366,838.7676,362,842.7676" style="stroke:#181818;stroke-width:1.0;"/><line style="stroke:#181818;stroke-width:1.0;" x1="445.5" x2="462" y1="811.8682" y2="811.8682"/><polygon fill="#181818" points="458,855.667,462,865.667,466,855.667,462,859.667" style="stroke:#181818;stroke-width:1.0;"/><line style="stroke:#181818;stroke-width:1.0;" x1="462" x2="462" y1="811.8682" y2="918.1641"/><line style="stroke:#181818;stroke-width:1.0;" x1="462" x2="374" y1="918.1641" y2="918.1641"/><polygon fill="#181818" points="384,914.1641,374,918.1641,384,922.1641,380,918.1641" style="stroke:#181818;stroke-width:1.0;"/><line style="stroke:#181818;stroke-width:1.0;" x1="362" x2="362" y1="882.5664" y2="906.1641"/><polygon fill="#181818" points="358,896.1641,362,906.1641,366,896.1641,362,900.1641" style="stroke:#181818;stroke-width:1.0;"/><line style="stroke:#181818;stroke-width:1.0;" x1="362" x2="362" y1="779.8682" y2="799.8682"/><polygon fill="#181818" points="358,789.8682,362,799.8682,366,789.8682,362,793.8682" style="stroke:#181818;stroke-width:1.0;"/><line style="stroke:#181818;stroke-width:1.0;" x1="116" x2="116" y1="303.4893" y2="323.4893"/><polygon fill="#181818" points="112,313.4893,116,323.4893,120,313.4893,116,317.4893" style="stroke:#181818;stroke-width:1.0;"/><line style="stroke:#181818;stroke-width:1.0;" x1="362" x2="362" y1="303.4893" y2="327.0869"/><polygon fill="#181818" points="358,317.0869,362,327.0869,366,317.0869,362,321.0869" style="stroke:#181818;stroke-width:1.0;"/><line style="stroke:#181818;stroke-width:1.0;" x1="116" x2="116" y1="933.7617" y2="953.7617"/><polygon fill="#181818" points="112,943.7617,116,953.7617,120,943.7617,116,947.7617" style="stroke:#181818;stroke-width:1.0;"/><line style="stroke:#181818;stroke-width:1.0;" x1="362" x2="362" y1="930.1641" y2="953.7617"/><polygon fill="#181818" points="358,943.7617,362,953.7617,366,943.7617,362,947.7617" style="stroke:#181818;stroke-width:1.0;"/><line style="stroke:#181818;stroke-width:1.0;" x1="245" x2="245" y1="277.4893" y2="297.4893"/><polygon fill="#181818" points="241,287.4893,245,297.4893,249,287.4893,245,291.4893" style="stroke:#181818;stroke-width:1.0;"/><line style="stroke:#181818;stroke-width:1.0;" x1="245" x2="245" y1="959.7617" y2="979.7617"/><polygon fill="#181818" points="241,969.7617,245,979.7617,249,969.7617,245,973.7617" style="stroke:#181818;stroke-width:1.0;"/><line style="stroke:#181818;stroke-width:1.0;" x1="245" x2="245" y1="1027.3594" y2="1047.3594"/><polygon fill="#181818" points="241,1037.3594,245,1047.3594,249,1037.3594,245,1041.3594" style="stroke:#181818;stroke-width:1.0;"/><line style="stroke:#181818;stroke-width:1.0;" x1="245" x2="245" y1="1081.1582" y2="1101.1582"/><polygon fill="#181818" points="241,1091.1582,245,1101.1582,249,1091.1582,245,1095.1582" style="stroke:#181818;stroke-width:1.0;"/><!--SRC=[hPJVJnD14CVVxw-On0SXGa5CZA56SwL52KYJ5bzC4x9Sj-tQkzrZRzjGd_WHHOE2cfhuOWnFlXPimuz2-HTs_mN_4cUlLJ7bmKJIfDcRcPtlPsPtDgeo7X990YZI4gdvQbPmjKW22gvan7UYg_nvzeB2xQbBJjTJhCvK8qMyQbcA6Y_E25z8k36RcStCPAwA5B98vI3AlJSvUUUkuoYcV0gwgOzrItytw_X_XhyMuEBKRABvK9_hdjcmQ_YnteGybNNcqJGDAIzIxZNIL55F2UauaI9IESwq_gfxkckspBO-DflcBUHgNB60vZa9eufG1NuBOga3pBoDSRkWsnYwhZknQ0zNnsOtQLEzH_cMxYB84L1UXpgHKTBXGb6Gh5nH3e3-RDxeZja4VOggkrPr6itfrFBZR7vf3DBkafjoyvdbfxc5CNJaCkcvVFm1JxABZxAud8ljRYerjzHtpBkpy-voAfUTp-JoWANhjbbFE5WoM6q4sySQZn2x5LSur9K2Hr_Nx87PmC13VO5LjB6-Swpa12ih2Lb5pMdzpVPea2KKGM8jy9FeO2KOqPzitz4UXPBnydYHA08JK64hL7A27PWeS4cBB49ZbPIgvE4eg0hbk1EvHZ6B5MYY_W6g7muEOmZLok6IbPnX8BnTf4mJpoF1XwW2mSj2H8W1OVao2mbMGv-jN3kDfAir9cb0kOeIQaqD4OLHmnDXUSeIDMAyorWUzQbi_2-LFJWWPSBu49ydWX3x8Qzkbu_JMAU-9Gf_8HM5f_1ewRMt2XDNgHmV42KQLrmgl9WT73IRVSFiWFwWcqY40_ZElBuMddsSnvQzyAXYHw1F5ikzH4CxdeLJVVoRx0k6d_Id187cxOq6XWL8TTFi_1DIVyyjU2P4bIAN_8DaHpSUEiTkw-0yR-5GTcE4bdc52VO01xgVQmFDPuDdhwDF2dm4OtiGFuWNPkkltY5D_59zZ4td-9nPaWKMgVj37NgGjA-a29sV]--></g></svg>